<svg width="454" height="454" viewBox="0 0 454 454" fill="none" xmlns="http://www.w3.org/2000/svg">
<circle cx="227" cy="227" r="227" fill="#F4D504"/>
<path d="M118.034 279.258C119.837 279.258 121.233 280.837 121.011 282.627L118.656 301.664C118.47 303.167 117.193 304.295 115.679 304.295H36.3938C34.5909 304.295 33.1952 302.716 33.4165 300.927L51.7912 152.336C51.9771 150.833 53.254 149.705 54.7685 149.705H79.5872C81.3901 149.705 82.7857 151.284 82.5645 153.073L67.3779 275.89C67.1567 277.679 68.5523 279.258 70.3552 279.258H118.034Z" fill="black"/>
<path d="M275.843 149.705C277.646 149.705 279.042 151.284 278.821 153.073L260.446 301.664C260.26 303.167 258.983 304.295 257.469 304.295H232.327C230.525 304.295 229.13 302.718 229.349 300.929L236.745 240.754C236.965 238.965 235.57 237.388 233.768 237.388H178.832C177.317 237.388 176.039 238.518 175.854 240.022L168.278 301.661C168.094 303.165 166.816 304.295 165.301 304.295H140.271C138.468 304.295 137.072 302.716 137.293 300.927L155.668 152.336C155.854 150.833 157.131 149.705 158.645 149.705H183.675C185.479 149.705 186.875 151.285 186.652 153.075L179.267 212.496C179.044 214.286 180.44 215.866 182.244 215.866H237.179C238.693 215.866 239.969 214.739 240.156 213.237L247.725 152.335C247.912 150.832 249.189 149.705 250.703 149.705H275.843Z" fill="black"/>
<path d="M357.135 280.217C361.265 280.217 364.86 279.898 367.922 279.258C370.983 278.619 373.618 277.802 375.825 276.808C378.103 275.813 380.026 274.748 381.592 273.612C383.158 272.475 384.547 271.41 385.757 270.415C387.039 269.421 388.142 268.604 389.068 267.965C390.064 267.326 391.097 267.006 392.165 267.006C393.162 267.006 393.98 267.184 394.621 267.539C395.333 267.894 395.867 268.285 396.223 268.711L405.423 279.978C406.341 281.103 406.327 282.729 405.345 283.799C399.012 290.697 391.628 296.038 383.194 299.821C374.009 303.94 363.543 306 351.796 306C342.184 306 333.605 304.295 326.058 300.886C318.582 297.477 312.281 292.789 307.154 286.823C302.028 280.785 298.112 273.683 295.407 265.514C292.772 257.275 291.455 248.326 291.455 238.666C291.455 229.788 292.416 221.407 294.339 213.523C296.332 205.568 299.109 198.252 302.669 191.575C306.229 184.828 310.501 178.755 315.485 173.357C320.54 167.959 326.129 163.413 332.252 159.719C338.446 155.955 345.067 153.078 352.116 151.09C359.165 149.03 366.534 148 374.223 148C379.919 148 385.116 148.533 389.815 149.598C394.514 150.664 398.786 152.155 402.631 154.073C406.476 155.92 409.893 158.192 412.883 160.891C415.334 162.995 417.556 165.28 419.551 167.748C420.425 168.83 420.363 170.376 419.462 171.436L410.214 182.306C409.43 183.229 408.505 184.046 407.437 184.757C406.44 185.467 405.123 185.822 403.485 185.822C401.848 185.822 400.317 185.218 398.893 184.011C397.469 182.732 395.725 181.383 393.66 179.962C391.595 178.471 388.925 177.121 385.65 175.914C382.375 174.635 378.068 173.996 372.728 173.996C365.679 173.996 359.129 175.452 353.077 178.364C347.025 181.276 341.757 185.431 337.271 190.829C332.857 196.156 329.368 202.655 326.805 210.326C324.313 217.997 323.067 226.592 323.067 236.109C323.067 243.07 323.922 249.285 325.63 254.754C327.339 260.152 329.724 264.769 332.786 268.604C335.847 272.369 339.443 275.245 343.572 277.234C347.702 279.223 352.223 280.217 357.135 280.217Z" fill="black"/>
</svg>
